<?xml version="1.0" encoding="UTF-8" standalone="no"?>
<!-- Created with Inkscape (http://www.inkscape.org/) -->

<svg
   version="1.1"
   id="svg1"
   width="445.49155"
   height="412.651"
   viewBox="0 0 445.49155 412.651"
   xmlns="http://www.w3.org/2000/svg"
   xmlns:svg="http://www.w3.org/2000/svg">
  <defs
     id="defs1" />
  <g
     id="layer1"
     style="display:inline"
     transform="translate(-31.195375,-2.854527)">
    <g
       id="g3"
       transform="translate(-747.55696,2.706017)">
      <path
         id="path1"
         style="display:inline;fill:#000000"
         d="M 1035.6973,0.15234375 C 893.52988,-0.65991177 748.87569,127.73135 784.11523,259.51758 c 45.10662,168.68638 235.41797,101.33594 235.41797,101.33594 30.7821,36.22102 -24.71484,50.66796 -24.71484,50.66796 0,0 17.91824,9.88625 95.77344,-25.33398 77.8552,-35.22023 221.8269,-245.92453 59.9375,-352.203125 C 1115.116,10.735932 1075.5041,0.37977529 1035.6973,0.15234375 Z m -3.8125,17.56250025 c 47.9873,0.916175 84.8132,21.308702 92.6914,35.423828 14.8296,26.569649 95.157,90.831248 -32.7481,232.330078 -127.90502,141.49883 -267.55076,25.95214 -267.55076,-17.30078 0,0 -34.60103,-88.9778 66.73438,-189.695314 C 938.51269,31.261324 989.543,16.906454 1031.8848,17.714844 Z" />
      <path
         style="fill:#000000"
         d="m 855.40454,269.71311 c 0,0 -14.90683,-65.34287 12.12627,-111.37638 27.0331,-46.03351 59.93625,-70.28606 69.51369,-74.765831 9.57744,-4.479771 23.47145,-10.714341 28.49604,-3.450532 5.02459,7.26381 7.04535,14.473004 -10.64995,25.177563 -17.69529,10.70456 -58.5474,39.7598 -73.40271,69.47042 -14.85531,29.71062 -17.25837,35.3906 -20.9722,55.92588 -3.71383,20.53528 -1.0923,38.12134 -1.0923,38.12134 0,0 -0.0546,1.96615 -1.20153,2.07538 -1.14692,0.10923 -2.46694,0.37507 -2.81731,-1.17784 z"
         id="path3" />
    </g>
  </g>
</svg>
